<?xml version="1.0" standalone="no"?>
<!DOCTYPE svg PUBLIC "-//W3C//DTD SVG 20010904//EN"
 "http://www.w3.org/TR/2001/REC-SVG-20010904/DTD/svg10.dtd">
<svg version="1.0" xmlns="http://www.w3.org/2000/svg"
 width="700.000000pt" height="700.000000pt" viewBox="0 0 700.000000 700.000000"
 preserveAspectRatio="xMidYMid meet">
<metadata>
Created by potrace 1.11, written by Peter Selinger 2001-2013
</metadata>
<g transform="translate(0.000000,700.000000) scale(0.100000,-0.100000)"
fill="#000000" stroke="none">
<path d="M1221 6354 c-182 -49 -339 -213 -380 -399 -28 -122 -671 -4710 -671
-4782 0 -152 54 -280 164 -388 78 -76 164 -125 254 -144 38 -8 776 -11 2625
-11 2812 0 2630 -3 2754 57 112 55 212 187 242 318 6 28 162 1126 347 2440
272 1944 334 2401 328 2450 -24 225 -177 402 -397 461 -80 21 -1278 20 -1362
-1 -131 -34 -270 -130 -344 -239 -16 -23 -306 -583 -646 -1246 -340 -663 -621
-1208 -624 -1213 -4 -4 -112 431 -240 965 -336 1402 -324 1356 -371 1446 -69
133 -174 225 -314 274 l-81 28 -615 -1 c-504 0 -625 -3 -669 -15z m1265 -434
c14 -14 35 -43 44 -65 10 -22 199 -799 421 -1727 222 -929 406 -1688 409
-1688 3 0 401 771 884 1713 529 1031 891 1725 909 1745 17 18 48 37 69 42 23
7 248 9 608 8 l572 -3 29 -33 c16 -18 29 -42 29 -55 0 -38 -662 -4751 -671
-4774 l-9 -23 -543 0 c-595 0 -570 -3 -602 60 -8 16 -15 43 -15 61 0 28 283
2046 295 2109 5 24 5 24 -10 6 -8 -10 -269 -510 -581 -1110 -312 -600 -574
-1099 -582 -1108 -14 -17 -51 -18 -509 -18 -316 0 -501 4 -513 10 -49 26 -65
84 -341 1212 -151 615 -276 1118 -279 1118 -3 0 -78 -517 -167 -1150 -89 -632
-167 -1158 -173 -1170 -11 -20 -17 -20 -554 -20 -530 0 -544 1 -569 20 -58 46
-77 -114 284 2432 187 1321 338 2357 346 2375 30 64 18 63 635 60 l556 -2 28
-25z"/>
</g>
</svg>
