<?xml version="1.0" encoding="utf-8"?>
<!-- Generator: Adobe Illustrator 24.1.2, SVG Export Plug-In . SVG Version: 6.00 Build 0)  -->
<svg version="1.1" id="MDC" xmlns="http://www.w3.org/2000/svg" xmlns:xlink="http://www.w3.org/1999/xlink" x="0px" y="0px"
	 viewBox="0 0 200 200" style="enable-background:new 0 0 200 200;" xml:space="preserve">
<style type="text/css">
	.st0{fill:#252525;stroke:#E2B055;stroke-width:4;stroke-miterlimit:10;}
	.st1{fill:#252525;}
	.st2{fill:#FFFFFF;}
</style>
<g>
	<path class="st0" d="M194.45,35.73l-18.73,133.53c-0.65,5.21-4.26,10.71-12.52,10.71H19.8c-3.53,0-6.97-1.57-9.42-4.31
		c-2.63-2.93-3.94-6.97-3.51-10.8l0.01-0.15l0.02-0.14L25.68,32.12c0.83-7.06,6.31-12.15,13.12-12.15H69
		c5.12,0,11.77,3.19,13.75,12.17l16.69,69.64l37.87-73.77l0.15-0.3l0.17-0.28c2.04-3.4,5.98-7.46,13.17-7.46h30.8
		c4.13,0,7.92,1.82,10.4,5C194.35,27.98,195.23,31.87,194.45,35.73z"/>
	<path class="st1" d="M194.45,35.73l-18.73,133.53c-0.65,5.21-4.26,10.71-12.52,10.71H19.8c-3.53,0-6.97-1.57-9.42-4.31
		c-2.63-2.93-3.94-6.97-3.51-10.8l0.01-0.15l0.02-0.14L25.68,32.12c0.83-7.06,6.31-12.15,13.12-12.15H69
		c5.12,0,11.77,3.19,13.75,12.17l16.69,69.64l37.87-73.77l0.15-0.3l0.17-0.28c2.04-3.4,5.98-7.46,13.17-7.46h30.8
		c4.13,0,7.92,1.82,10.4,5C194.35,27.98,195.23,31.87,194.45,35.73z"/>
	<g>
		<g>
			<path class="st2" d="M184.6,33.97l-18.8,134c-0.2,1.8-0.8,2-2.6,2H135c-1.8,0-3.4-2.2-3.2-4l8.6-60.6l-32.8,63
				c-0.8,1.8-1.8,1.6-3.4,1.6H79c-1.6,0-3-2-3.4-3.6L60,102.77l-9.2,65.2c-0.2,1.8-1,2-2.8,2H19.8c-1.8,0-3.2-2.2-3-4l18.8-132.6
				c0.2-2,1.4-3.4,3.2-3.4H69c2,0,3.4,1.6,4,4.4l23,96l50.2-97.8c1.2-2,2.6-2.6,4.6-2.6h30.8C183.6,29.97,185.2,31.57,184.6,33.97z"
				/>
		</g>
	</g>
</g>
<g>
</g>
<g>
</g>
<g>
</g>
<g>
</g>
<g>
</g>
<g>
</g>
<g>
</g>
<g>
</g>
<g>
</g>
<g>
</g>
<g>
</g>
<g>
</g>
<g>
</g>
<g>
</g>
<g>
</g>
</svg>
