<?xml version="1.0" encoding="utf-8"?>
<!-- Generator: Adobe Illustrator 24.1.2, SVG Export Plug-In . SVG Version: 6.00 Build 0)  -->
<svg version="1.1" id="MDC" xmlns="http://www.w3.org/2000/svg" xmlns:xlink="http://www.w3.org/1999/xlink" x="0px" y="0px"
	 viewBox="0 0 512 512" style="enable-background:new 0 0 512 512;" xml:space="preserve">
<style type="text/css">
	.st0{fill:#252525;}
	.st1{fill:#E2B055;}
	.st2{fill:#FFFFFF;}
</style>
<g>
	<g>
		<g>
			<path class="st0" d="M149.92,379.73c-10.2,0-18.5-8.3-18.5-18.5v-35.96H30.58c-5.37,0-10.57-2.36-14.27-6.48
				c-3.83-4.28-5.75-10.2-5.13-15.83l0.01-0.07l0.01-0.07l0.04-0.32l18.77-132.42c1.24-10.3,9.47-17.8,19.56-17.8h30.2
				c8.09,0,17.43,5.32,20.08,17.21l12.58,52.51l30.17-58.77l0.18-0.26l0.11-0.17c4.09-6.77,10.73-10.52,18.68-10.52h260.74
				c44.81,0,78.61,33.51,78.61,77.95c0,50.63-44.88,95.05-96.05,95.05h-40.46v35.96c0,10.2-8.3,18.5-18.5,18.5H149.92z"/>
			<path class="st1" d="M422.32,153.77c43.96,0,77.11,32.87,77.11,76.45c0,49.83-44.18,93.55-94.55,93.55h-41.96v37.46
				c0,9.37-7.62,17-17,17h-196c-9.37,0-17-7.63-17-17v-37.46H30.58c-4.95,0-9.74-2.18-13.15-5.98c-3.55-3.97-5.33-9.45-4.76-14.67
				l0.01-0.05l0.01-0.06l0.04-0.34L31.5,170.28c1.15-9.57,8.74-16.51,18.08-16.51h30.2c7.49,0,16.15,4.96,18.62,16.04l13.53,56.47
				l31.71-61.78l0.15-0.29l0.11-0.21l0.13-0.19l0.14-0.22c3.82-6.33,10-9.82,17.41-9.82H422.32 M422.32,150.77H161.58
				c-8.49,0-15.57,3.99-19.96,11.24l-0.09,0.15l-0.1,0.15l-0.1,0.15l-0.08,0.16l-0.11,0.21l-0.16,0.3l-28.02,54.58l-11.64-48.59
				c-2.82-12.66-12.85-18.34-21.54-18.34h-30.2c-10.86,0-19.71,8.04-21.05,19.12L9.76,302.25l0,0.04l0,0.04l-0.03,0.24l-0.02,0.1
				l-0.01,0.13c-0.66,6.05,1.4,12.4,5.51,17c3.98,4.44,9.59,6.98,15.39,6.98h99.34v34.46c0,11.03,8.97,20,20,20h196
				c11.03,0,20-8.97,20-20v-34.46h38.96c51.97,0,97.55-45.12,97.55-96.55C502.43,184.93,467.99,150.77,422.32,150.77L422.32,150.77z
				"/>
		</g>
	</g>
</g>
<g>
	<path class="st2" d="M195.38,172.77l-18.8,134c-0.2,1.8-0.8,2-2.6,2h-28.2c-1.8,0-3.4-2.2-3.2-4l8.6-60.6l-32.8,63
		c-0.8,1.8-1.8,1.6-3.4,1.6h-25.2c-1.6,0-3-2-3.4-3.6l-15.6-63.6l-9.2,65.2c-0.2,1.8-1,2-2.8,2h-28.2c-1.8,0-3.2-2.2-3-4l18.8-132.6
		c0.2-2,1.4-3.4,3.2-3.4h30.2c2,0,3.4,1.6,4,4.4l23,96l50.2-97.8c1.2-2,2.6-2.6,4.6-2.6h30.8
		C194.38,168.77,195.98,170.37,195.38,172.77z"/>
	<path class="st2" d="M328.18,228.97c0,46.8-34.8,79.8-83.2,79.8h-44c-1.8,0-3.2-2.2-3-4l18.8-134c0.2-1.8,0.6-2,2.4-2h44
		C305.98,168.77,328.18,194.77,328.18,228.97z M293.98,227.97c0-19-10.8-29.2-33.4-29.2h-13.6l-11,80h11.8
		C277.78,278.77,293.98,256.97,293.98,227.97z"/>
	<path class="st2" d="M454.98,286.77c1.2,1.6,2.8,3.8-0.4,6.6c-13,11-31.6,18-50.8,18c-37.2,0-64.6-27.4-64.6-63.6
		c0-42.8,38.2-80.6,82-80.6c20.8,0,37.4,8.6,47,21.6c1.4,1.8,2,3.8,0,5.6l-17,15.4c-1.4,1.4-3.8,1-5.4-0.4
		c-6.8-5.2-15.6-8.8-26.4-8.8c-24.4,0-44.8,21.6-44.8,46.4c0,18,12.4,30.8,30.8,30.8c12.4,0,22.2-3.8,29.4-9.6c2-1.6,4.4-1.4,6,0.6
		L454.98,286.77z"/>
</g>
<g>
	<path class="st2" d="M180.17,339.08c0,5-3.38,8.46-9.54,8.46h-2.23v7.74c0,0.32-0.22,0.54-0.54,0.54h-5.08
		c-0.32,0-0.54-0.22-0.54-0.54v-24.12c0-0.32,0.22-0.54,0.54-0.54h7.85C176.79,330.62,180.17,334.07,180.17,339.08z M174.3,339.08
		c0-2.45-2.05-3.06-3.78-3.06h-2.12v6.12h2.12C172.25,342.14,174.3,341.49,174.3,339.08z"/>
	<path class="st2" d="M219.7,355.82h-5.29c-0.29,0-0.5-0.11-0.61-0.43l-1.19-3.67h-8.28l-1.15,3.67c-0.11,0.32-0.32,0.43-0.61,0.43
		h-5.29c-0.4,0-0.58-0.25-0.43-0.61l8.68-24.15c0.11-0.29,0.32-0.43,0.61-0.43h4.61c0.29,0,0.58,0.14,0.68,0.43l8.71,24.15
		C220.27,355.56,220.09,355.82,219.7,355.82z M210.95,346.53l-2.48-7.78l-2.48,7.78H210.95z"/>
	<path class="st2" d="M261.89,331.16v24.12c0,0.32-0.22,0.54-0.54,0.54h-5.65c-0.29,0-0.5-0.11-0.65-0.36l-8.17-14.76v14.58
		c0,0.32-0.22,0.54-0.54,0.54h-5.08c-0.32,0-0.54-0.22-0.54-0.54v-24.12c0-0.32,0.22-0.54,0.54-0.54h5.65c0.29,0,0.5,0.11,0.65,0.36
		l8.17,14.79v-14.61c0-0.32,0.22-0.54,0.54-0.54h5.08C261.67,330.62,261.89,330.83,261.89,331.16z"/>
	<path class="st2" d="M298.5,350.96v4.32c0,0.32-0.22,0.54-0.54,0.54h-13.75c-0.32,0-0.54-0.22-0.54-0.54v-24.12
		c0-0.32,0.22-0.54,0.54-0.54h13.71c0.32,0,0.54,0.22,0.54,0.54v4.32c0,0.32-0.22,0.54-0.54,0.54h-8.1v4.32h7.6
		c0.32,0,0.54,0.22,0.54,0.54v4.32c0,0.32-0.22,0.54-0.54,0.54h-7.6v4.68h8.13C298.29,350.42,298.5,350.63,298.5,350.96z"/>
	<path class="st2" d="M334.32,350.96v4.32c0,0.32-0.22,0.54-0.54,0.54h-13.03c-0.32,0-0.54-0.22-0.54-0.54v-24.12
		c0-0.32,0.22-0.54,0.54-0.54h5.08c0.32,0,0.54,0.22,0.54,0.54v19.26h7.42C334.11,350.42,334.32,350.63,334.32,350.96z"/>
</g>
<g>
</g>
<g>
</g>
<g>
</g>
<g>
</g>
<g>
</g>
<g>
</g>
<g>
</g>
<g>
</g>
<g>
</g>
<g>
</g>
<g>
</g>
<g>
</g>
<g>
</g>
<g>
</g>
<g>
</g>
</svg>
