<?xml version="1.0" encoding="utf-8"?>
<!-- Generator: Adobe Illustrator 24.1.2, SVG Export Plug-In . SVG Version: 6.00 Build 0)  -->
<svg version="1.1" id="MDC" xmlns="http://www.w3.org/2000/svg" xmlns:xlink="http://www.w3.org/1999/xlink" x="0px" y="0px"
	 viewBox="0 0 512 250" style="enable-background:new 0 0 512 250;" xml:space="preserve">
<style type="text/css">
	.st0{fill:#252525;}
	.st1{fill:#E2B055;}
	.st2{fill:#FFFFFF;}
</style>
<g>
	<g>
		<g>
			<path class="st0" d="M149.9,239.7c-10.2,0-18.5-8.3-18.5-18.5v-36H30.6c-5.4,0-10.6-2.4-14.3-6.5c-3.8-4.3-5.8-10.2-5.1-15.8
				l0-0.1l0-0.1l0-0.3L30,30c1.2-10.3,9.5-17.8,19.6-17.8h30.2c8.1,0,17.4,5.3,20.1,17.2l12.6,52.5l30.2-58.8l0.2-0.3l0.1-0.2
				c4.1-6.8,10.7-10.5,18.7-10.5h260.7c44.8,0,78.6,33.5,78.6,77.9c0,50.6-44.9,95-96,95h-40.5v36c0,10.2-8.3,18.5-18.5,18.5
				L149.9,239.7L149.9,239.7z"/>
			<path class="st1" d="M422.3,13.7c44,0,77.1,32.9,77.1,76.4c0,49.8-44.2,93.6-94.5,93.6h-42v37.5c0,9.4-7.6,17-17,17h-196
				c-9.4,0-17-7.6-17-17v-37.5H30.6c-4.9,0-9.7-2.2-13.1-6c-3.6-4-5.3-9.5-4.8-14.7l0,0l0-0.1l0-0.3L31.5,30.2
				c1.2-9.6,8.7-16.5,18.1-16.5h30.2c7.5,0,16.2,5,18.6,16l13.5,56.5l31.7-61.8l0.1-0.3l0.1-0.2l0.1-0.2l0.1-0.2
				c3.8-6.3,10-9.8,17.4-9.8L422.3,13.7 M422.3,10.7H161.6c-8.5,0-15.6,4-20,11.2l-0.1,0.1l-0.1,0.1l-0.1,0.1l-0.1,0.2l-0.1,0.2
				l-0.2,0.3l-28,54.6l-11.6-48.6c-2.8-12.7-12.8-18.3-21.5-18.3H49.6c-10.9,0-19.7,8-21,19.1L9.8,162.2v0v0l0,0.2l0,0.1l0,0.1
				c-0.7,6,1.4,12.4,5.5,17c4,4.4,9.6,7,15.4,7h99.3v34.5c0,11,9,20,20,20h196c11,0,20-9,20-20v-34.5h39c52,0,97.6-45.1,97.6-96.6
				C502.4,44.9,468,10.7,422.3,10.7L422.3,10.7z"/>
		</g>
	</g>
</g>
<g>
	<path class="st2" d="M195.4,32.7l-18.8,134c-0.2,1.8-0.8,2-2.6,2h-28.2c-1.8,0-3.4-2.2-3.2-4l8.6-60.6l-32.8,63
		c-0.8,1.8-1.8,1.6-3.4,1.6H89.8c-1.6,0-3-2-3.4-3.6l-15.6-63.6l-9.2,65.2c-0.2,1.8-1,2-2.8,2H30.6c-1.8,0-3.2-2.2-3-4L46.4,32.1
		c0.2-2,1.4-3.4,3.2-3.4h30.2c2,0,3.4,1.6,4,4.4l23,96L157,31.3c1.2-2,2.6-2.6,4.6-2.6h30.8C194.4,28.7,196,30.3,195.4,32.7z"/>
	<path class="st2" d="M328.2,88.9c0,46.8-34.8,79.8-83.2,79.8h-44c-1.8,0-3.2-2.2-3-4l18.8-134c0.2-1.8,0.6-2,2.4-2h44
		C306,28.7,328.2,54.7,328.2,88.9z M294,87.9c0-19-10.8-29.2-33.4-29.2H247l-11,80h11.8C277.8,138.7,294,116.9,294,87.9z"/>
	<path class="st2" d="M455,146.7c1.2,1.6,2.8,3.8-0.4,6.6c-13,11-31.6,18-50.8,18c-37.2,0-64.6-27.4-64.6-63.6
		c0-42.8,38.2-80.6,82-80.6c20.8,0,37.4,8.6,47,21.6c1.4,1.8,2,3.8,0,5.6l-17,15.4c-1.4,1.4-3.8,1-5.4-0.4
		c-6.8-5.2-15.6-8.8-26.4-8.8c-24.4,0-44.8,21.6-44.8,46.4c0,18,12.4,30.8,30.8,30.8c12.4,0,22.2-3.8,29.4-9.6c2-1.6,4.4-1.4,6,0.6
		L455,146.7z"/>
</g>
<g>
	<path class="st2" d="M180.2,199c0,5-3.4,8.5-9.5,8.5h-2.2v7.7c0,0.3-0.2,0.5-0.5,0.5h-5.1c-0.3,0-0.5-0.2-0.5-0.5v-24.1
		c0-0.3,0.2-0.5,0.5-0.5h7.9C176.8,190.6,180.2,194,180.2,199z M174.3,199c0-2.5-2.1-3.1-3.8-3.1h-2.1v6.1h2.1
		C172.3,202.1,174.3,201.4,174.3,199z"/>
	<path class="st2" d="M219.7,215.8h-5.3c-0.3,0-0.5-0.1-0.6-0.4l-1.2-3.7h-8.3l-1.1,3.7c-0.1,0.3-0.3,0.4-0.6,0.4h-5.3
		c-0.4,0-0.6-0.3-0.4-0.6l8.7-24.1c0.1-0.3,0.3-0.4,0.6-0.4h4.6c0.3,0,0.6,0.1,0.7,0.4l8.7,24.1
		C220.3,215.5,220.1,215.8,219.7,215.8z M210.9,206.5l-2.5-7.8l-2.5,7.8H210.9z"/>
	<path class="st2" d="M261.9,191.1v24.1c0,0.3-0.2,0.5-0.5,0.5h-5.6c-0.3,0-0.5-0.1-0.6-0.4l-8.2-14.8v14.6c0,0.3-0.2,0.5-0.5,0.5
		h-5.1c-0.3,0-0.5-0.2-0.5-0.5v-24.1c0-0.3,0.2-0.5,0.5-0.5h5.6c0.3,0,0.5,0.1,0.6,0.4l8.2,14.8v-14.6c0-0.3,0.2-0.5,0.5-0.5h5.1
		C261.7,190.6,261.9,190.8,261.9,191.1z"/>
	<path class="st2" d="M298.5,210.9v4.3c0,0.3-0.2,0.5-0.5,0.5h-13.8c-0.3,0-0.5-0.2-0.5-0.5v-24.1c0-0.3,0.2-0.5,0.5-0.5h13.7
		c0.3,0,0.5,0.2,0.5,0.5v4.3c0,0.3-0.2,0.5-0.5,0.5h-8.1v4.3h7.6c0.3,0,0.5,0.2,0.5,0.5v4.3c0,0.3-0.2,0.5-0.5,0.5h-7.6v4.7h8.1
		C298.3,210.4,298.5,210.6,298.5,210.9z"/>
	<path class="st2" d="M334.3,210.9v4.3c0,0.3-0.2,0.5-0.5,0.5h-13c-0.3,0-0.5-0.2-0.5-0.5v-24.1c0-0.3,0.2-0.5,0.5-0.5h5.1
		c0.3,0,0.5,0.2,0.5,0.5v19.3h7.4C334.1,210.4,334.3,210.6,334.3,210.9z"/>
</g>
</svg>
